<svg xmlns="http://www.w3.org/2000/svg" width="26" height="49" viewBox="0 0 26 49">
    <path fill="#424B5F" fill-rule="evenodd" d="M19.979 22.259c-1.97-1.063-4.063-1.873-6.136-2.713-1.202-.485-2.352-1.052-3.368-1.841-2-1.559-1.616-4.089.726-5.09.663-.284 1.357-.375 2.062-.416 2.715-.141 5.296.344 7.752 1.498 1.223.577 1.627.395 2.042-.85.435-1.316.798-2.652 1.202-3.977.27-.89-.062-1.478-.923-1.852a20.062 20.062 0 0 0-4.891-1.427c-2.218-.334-2.218-.344-2.228-2.52-.01-3.067-.01-3.067-3.161-3.067-.456 0-.912-.01-1.368 0-1.472.041-1.72.294-1.762 1.741-.02.648 0 1.296-.01 1.953-.01 1.923-.021 1.893-1.907 2.56-4.56 1.62-7.38 4.656-7.68 9.514-.27 4.3 2.032 7.205 5.648 9.32 2.229 1.306 4.695 2.075 7.058 3.097.922.395 1.803.85 2.57 1.478 2.27 1.831 1.855 4.877-.84 6.031-1.44.617-2.963.77-4.528.577-2.415-.293-4.726-.91-6.902-2.014-1.275-.648-1.648-.476-2.083.87C.879 36.295.547 37.47.215 38.643c-.445 1.579-.28 1.953 1.265 2.692 1.969.931 4.073 1.407 6.218 1.74 1.679.264 1.73.335 1.751 2.035.01.769.01 1.548.021 2.317.01.972.487 1.539 1.513 1.559 1.16.02 2.332.02 3.493-.01.953-.02 1.44-.526 1.44-1.468 0-1.052.052-2.115.01-3.167-.051-1.073.425-1.62 1.482-1.903 2.436-.648 4.509-1.923 6.105-3.825 4.435-5.263 2.746-12.964-3.534-16.354z"/>
</svg>
