<svg xmlns="http://www.w3.org/2000/svg" width="16" height="17" viewBox="0 0 16 17">
    <g fill="#67758D" fill-rule="evenodd">
        <path d="M15.782 1.018a.339.339 0 0 0-.384.08l-1.465 1.543C12.361.938 10.261 0 8.02 0c-.474 0-.952.044-1.421.13C3.407.712.82 3.227.01 6.536a.386.386 0 0 0 .063.32c.067.09.17.143.278.143h2.244c.148 0 .28-.097.331-.244.657-1.89 2.29-3.333 4.158-3.674.307-.057.62-.085.931-.085 1.485 0 2.872.626 3.906 1.762l-1.488 1.566a.386.386 0 0 0-.077.404.353.353 0 0 0 .326.23h4.965A.362.362 0 0 0 16 6.586V1.361a.372.372 0 0 0-.218-.343zM15.648 10h-2.244a.353.353 0 0 0-.331.243c-.657 1.89-2.29 3.333-4.158 3.675a5.2 5.2 0 0 1-.931.085c-1.485 0-2.872-.626-3.906-1.762l1.488-1.566c.1-.106.13-.266.076-.404a.353.353 0 0 0-.325-.23H.352a.362.362 0 0 0-.352.371v5.227c0 .15.086.285.218.343A.34.34 0 0 0 .6 15.9l1.466-1.542C3.638 16.062 5.739 17 7.98 17c.474 0 .952-.044 1.421-.13 3.191-.583 5.777-3.098 6.587-6.406a.387.387 0 0 0-.063-.32.348.348 0 0 0-.278-.144z"/>
    </g>
</svg>
