<svg xmlns="http://www.w3.org/2000/svg" width="44" height="44" viewBox="0 0 44 44">
    <g fill="#424B5F" fill-rule="evenodd">
        <path d="M22 0C9.87 0 0 9.87 0 22s9.87 22 22 22 22-9.87 22-22S34.13 0 22 0zm0 39.319c-9.55 0-17.32-7.77-17.32-17.319 0-9.55 7.77-17.319 17.32-17.319S39.32 12.451 39.32 22c0 9.55-7.77 17.319-17.32 17.319z"/>
        <path d="M33.227 21.444h-9.68V9.778c0-.982-.794-1.778-1.774-1.778C20.794 8 20 8.796 20 9.778v13.444c0 .982.794 1.778 1.773 1.778h11.454c.979 0 1.773-.796 1.773-1.778s-.794-1.778-1.773-1.778z"/>
    </g>
</svg>
