<svg xmlns="http://www.w3.org/2000/svg" width="47" height="47" viewBox="0 0 47 47">
    <g fill="#424B5F" fill-rule="evenodd">
        <path d="M1.292 39.476A4.407 4.407 0 0 0 4.409 47c1.129 0 2.257-.43 3.118-1.29L22 31.23 15.764 25 1.292 39.476zM37.578 12.472l6.184-3.197L47 3.018 43.981 0l-6.256 3.24-3.203 6.176L27 16.945 30.05 20z"/>
        <path d="M38.778 29.434l-.593-.06c-1.076 0-2.095.221-3.047.574l-18.086-18.09c.353-.951.573-1.97.573-3.045l-.059-.594C17.255 3.634 13.477 0 8.812 0 7.455 0 6.183.332 5.035.881l5.854 5.855c.309.308.52.672.661 1.057a2.933 2.933 0 0 1-.66 3.096 2.93 2.93 0 0 1-2.078.861c-.346 0-.69-.076-1.019-.2a2.922 2.922 0 0 1-1.057-.664L.88 5.035C.331 6.183 0 7.455 0 8.813c0 4.664 3.634 8.442 8.22 8.753l.593.059c1.075 0 2.094-.22 3.046-.57l18.083 18.086c-.347.952-.567 1.971-.567 3.046l.062.594c.305 4.588 4.086 8.219 8.75 8.219a8.627 8.627 0 0 0 3.778-.881l-5.854-5.855a3 3 0 0 1-.667-1.054 2.928 2.928 0 0 1 2.744-3.96c.346 0 .687.074 1.022.2.385.144.752.35 1.054.66l5.855 5.855A8.689 8.689 0 0 0 47 38.188c-.003-4.665-3.637-8.443-8.222-8.754z"/>
    </g>
</svg>
