<svg xmlns="http://www.w3.org/2000/svg" width="16" height="16" viewBox="0 0 16 16">
    <g fill="#97A4BA" fill-rule="evenodd">
        <path d="M6.85 0H.35A.35.35 0 0 0 0 .35v6.5c0 .193.157.35.35.35h6.5a.35.35 0 0 0 .35-.35V.35A.35.35 0 0 0 6.85 0zM15.65 0h-6.5a.35.35 0 0 0-.35.35v6.5c0 .193.157.35.35.35h6.5a.35.35 0 0 0 .35-.35V.35a.35.35 0 0 0-.35-.35zM6.85 8.8H.35a.35.35 0 0 0-.35.35v6.5c0 .193.157.35.35.35h6.5a.35.35 0 0 0 .35-.35v-6.5a.35.35 0 0 0-.35-.35zM15.65 8.8h-6.5a.35.35 0 0 0-.35.35v6.5c0 .193.157.35.35.35h6.5a.35.35 0 0 0 .35-.35v-6.5a.35.35 0 0 0-.35-.35z"/>
    </g>
</svg>
