<svg xmlns="http://www.w3.org/2000/svg" width="62" height="26" viewBox="0 0 62 26">
    <g fill="none" fill-rule="evenodd" transform="translate(-2 -7)">
        <path fill="#D1EAFC" fill-rule="nonzero" d="M15.964 28H2.972V8.148h4.424v15.624h8.568V28zm6.832 0H18.54V14.084h4.256V28zm-3.892-16.408a2.402 2.402 0 0 1-.728-1.764c0-.69.243-1.279.728-1.764a2.37 2.37 0 0 1 1.736-.728c.69 0 1.283.243 1.778.728a2.38 2.38 0 0 1 .742 1.764 2.38 2.38 0 0 1-.742 1.764 2.449 2.449 0 0 1-1.778.728 2.37 2.37 0 0 1-1.736-.728zm11.872 8.428V28H26.52V14.084h4.116v1.596c.355-.616.9-1.097 1.638-1.442a5.264 5.264 0 0 1 2.254-.518c1.661 0 2.921.518 3.78 1.554s1.288 2.366 1.288 3.99V28H35.34v-8.008c0-.728-.191-1.311-.574-1.75-.383-.439-.947-.658-1.694-.658-.69 0-1.246.229-1.666.686-.42.457-.63 1.04-.63 1.75zm17.5-9.996v4.06h2.716v3.724h-2.716v5.208c0 .97.513 1.456 1.54 1.456.336 0 .71-.047 1.12-.14v3.528c-.523.261-1.26.392-2.212.392-1.437 0-2.571-.401-3.402-1.204-.83-.803-1.246-1.895-1.246-3.276v-5.964h-2.464v-3.724h.7c.71 0 1.246-.21 1.61-.63.364-.42.546-.966.546-1.638v-1.792h3.808z"/>
        <circle cx="59" cy="28" r="5" fill="#35C4D6"/>
    </g>
</svg>
