<svg xmlns="http://www.w3.org/2000/svg" width="21" height="21" viewBox="0 0 21 21">
    <g fill="none" fill-rule="evenodd">
        <g fill="#424B5F">
            <path d="M15.943 17.194l-1.373-2.29a6.8 6.8 0 0 1-.97-3.498V9.4a5.607 5.607 0 0 0-4-5.364V2.6C9.6 1.718 8.882 1 8 1c-.883 0-1.6.718-1.6 1.6v1.436c-2.31.69-4 2.832-4 5.364v2.006a6.805 6.805 0 0 1-.97 3.498l-1.373 2.29a.4.4 0 0 0 .342.606H15.6a.401.401 0 0 0 .343-.606zM5.6 18.6c.43.942 1.34 1.6 2.4 1.6 1.06 0 1.97-.658 2.4-1.6H5.6z"/>
        </g>
        <circle cx="17.5" cy="3.5" r="3.5" fill="#FC381D"/>
    </g>
</svg>
