<svg xmlns="http://www.w3.org/2000/svg" width="82" height="82" viewBox="0 0 82 82">
    <defs>
        <linearGradient id="a" x1="0%" y1="20.718%" y2="79.282%">
            <stop offset="0%" stop-color="#14E4C1"/>
            <stop offset="100%" stop-color="#21EDFF"/>
        </linearGradient>
    </defs>
    <g fill="none" fill-rule="evenodd">
        <path fill="url(#a)" fill-opacity=".89" d="M17.225 84.01c14.69 24.432 24.866-22.704 62.492-10.502 32.028 10.386 25.624-17.679 6.424-35.546-12.442-11.579-33.108-23.333-53.21-9.68C15.077 40.41 5.268 64.127 17.225 84.012z" transform="rotate(-44 19.59 67.42)"/>
        <g fill-rule="nonzero">
            <path fill="#EDD4C2" d="M11.05 7C8.813 7 7 8.903 7 11.251V18.7h8.1v-7.449C15.1 8.903 13.286 7 11.05 7z"/>
            <path fill="#FFEFE4" d="M57.76 7H11.5a4.141 4.141 0 0 1 4.14 4.143V70H61.9V11.143A4.143 4.143 0 0 0 57.76 7z"/>
            <path fill="#EDD4C2" d="M15.1 67.3H61V70H15.1z"/>
            <path fill="#FFF7F2" d="M57.76 7H11.5c1.688 0 3.14.965 3.784 2.348H57.76c2.286 0 4.141 1.769 4.141 3.952v-2.348C61.9 8.77 60.045 7 57.76 7z"/>
            <path fill="#FF8354" d="M70 62.8h-5.4V24.1H70z"/>
            <path fill="#FFEFE4" d="M70 64.6h-5.4v-1.8H70z"/>
            <path fill="#6770E6" d="M64.6 64.6H70v2.705A2.697 2.697 0 0 1 67.3 70c-1.49 0-2.7-1.207-2.7-2.695V64.6z"/>
            <path fill="#5861C7" d="M67.3 67.467c-1.49 0-2.7-1.283-2.7-2.867v2.533c0 1.584 1.21 2.867 2.7 2.867 1.491 0 2.7-1.283 2.7-2.867V64.6c0 1.584-1.209 2.867-2.7 2.867z"/>
            <path fill="#EDD4C2" d="M64.6 24.1l2.5-7.058a.211.211 0 0 1 .4 0L70 24.1h-5.4z"/>
            <path fill="#5861C7" d="M65.5 20.5h2.7l-1.15-3.45a.208.208 0 0 0-.4 0L65.5 20.5z"/>
            <path fill="#5861C7" d="M65.5 20.5h2.7l-1.15-3.45a.208.208 0 0 0-.4 0L65.5 20.5z"/>
            <path fill="#8F95E6" d="M66.546 18.374c.103-.207.505-.207.607 0L68.2 20.5l-1.146-3.445a.212.212 0 0 0-.409 0L65.5 20.5l1.046-2.125z"/>
            <g fill="#6770E6">
                <path d="M52.563 32.47H28.384a1.123 1.123 0 0 1-1.118-1.127c0-.623.5-1.128 1.118-1.128h24.179c.618 0 1.119.505 1.119 1.128 0 .622-.501 1.127-1.119 1.127zM52.563 38.38H28.384a1.123 1.123 0 0 1-1.118-1.128c0-.623.5-1.127 1.118-1.127h24.179c.618 0 1.119.504 1.119 1.127s-.501 1.128-1.119 1.128zM52.563 44.289H28.384a1.123 1.123 0 0 1-1.118-1.128c0-.622.5-1.128 1.118-1.128h24.179c.618 0 1.119.506 1.119 1.128 0 .623-.501 1.128-1.119 1.128zM52.563 50.198H28.384a1.123 1.123 0 0 1-1.118-1.128c0-.623.5-1.127 1.118-1.127h24.179c.618 0 1.119.504 1.119 1.127s-.501 1.128-1.119 1.128zM24.639 31.342c0 .623-.501 1.128-1.119 1.128s-1.12-.505-1.12-1.128c0-.623.502-1.127 1.12-1.127.618 0 1.119.504 1.119 1.127zM24.639 37.252c0 .623-.501 1.128-1.119 1.128s-1.12-.505-1.12-1.128c0-.623.502-1.128 1.12-1.128.618 0 1.119.505 1.119 1.128zM24.639 43.161c0 .623-.501 1.128-1.119 1.128s-1.12-.505-1.12-1.128c0-.623.502-1.128 1.12-1.128.618 0 1.119.505 1.119 1.128zM24.639 49.07c0 .623-.501 1.128-1.119 1.128s-1.12-.505-1.12-1.128c0-.623.502-1.127 1.12-1.127.618 0 1.119.504 1.119 1.127zM27.07 23.23v-7.719H25.08a.94.94 0 0 1-.935-.943.94.94 0 0 1 .935-.943h5.949a.94.94 0 0 1 .935.943.939.939 0 0 1-.935.943H29.04v7.72a.94.94 0 0 1-.935.942h-.101a.94.94 0 0 1-.936-.943zM40.622 22.008l.515.623a.884.884 0 0 1-.14 1.26.867.867 0 0 1-1.204-.137l-.224-.274c-.692.62-1.525.93-2.5.93a4.214 4.214 0 0 1-1.526-.274 3.712 3.712 0 0 1-1.235-.766 3.563 3.563 0 0 1-1.127-2.659c0-.589.144-1.149.432-1.68.287-.53.69-.982 1.206-1.355a3.997 3.997 0 0 1-.453-.796 2.181 2.181 0 0 1-.176-.87c0-.363.066-.703.198-1.023.132-.319.318-.596.562-.832a2.766 2.766 0 0 1 1.96-.766c.701 0 1.264.164 1.687.494.117.09.224.187.322.29a.878.878 0 0 1-.213 1.382l-.092.05c-.315.167-.687.074-.932-.186a1.08 1.08 0 0 0-.745-.336c-.281 0-.506.084-.672.25a.867.867 0 0 0-.248.635c0 .157.034.3.102.434.068.133.16.272.278.42l3.143 3.86.43-.707a.811.811 0 0 1 1.13-.264c.381.243.494.751.253 1.135l-.731 1.162zm-3.464.663c.545 0 .993-.163 1.344-.486l-2.645-3.227c-.273.206-.482.46-.628.759a2.079 2.079 0 0 0-.044 1.767c.116.25.275.465.474.642.2.176.43.311.688.405.258.094.528.14.81.14zM51.637 21.791a.983.983 0 0 1-.069 1.475c-.32.258-.666.475-1.038.65-.701.328-1.486.493-2.352.493a5.458 5.458 0 0 1-3.903-1.59 5.542 5.542 0 0 1-1.578-3.92c0-.776.14-1.5.423-2.174a5.455 5.455 0 0 1 1.155-1.746 5.458 5.458 0 0 1 3.903-1.59c.837 0 1.576.147 2.213.442.339.156.656.35.955.579.433.335.454.99.062 1.372l-.083.081a.911.911 0 0 1-1.198.055 3.66 3.66 0 0 0-.496-.32c-.404-.216-.884-.324-1.439-.324-.488 0-.946.087-1.374.258-.43.173-.801.415-1.118.729a3.467 3.467 0 0 0-.753 1.142 3.86 3.86 0 0 0-.277 1.496c0 .55.092 1.048.277 1.495a3.318 3.318 0 0 0 1.87 1.871c.43.172.887.258 1.375.258.584 0 1.104-.12 1.557-.361a3.54 3.54 0 0 0 .604-.406.963.963 0 0 1 1.284.035z"/>
            </g>
            <path fill="#EDD4C2" d="M29.382 62.8h-6.065a1.018 1.018 0 0 1-1.017-1.017v-6.066c0-.562.456-1.017 1.017-1.017h6.066c.562 0 1.017.455 1.017 1.017v6.066c0 .561-.456 1.017-1.018 1.017z"/>
            <path fill="#6770E6" d="M26.194 61a.975.975 0 0 1-.581-.19l-1.157-.861a.849.849 0 0 1-.154-1.24.978.978 0 0 1 1.318-.145l.431.32 1.783-2.059a.98.98 0 0 1 1.32-.127.848.848 0 0 1 .135 1.243l-2.367 2.734a.961.961 0 0 1-.728.325zM52.682 60.1H35.118C34.5 60.1 34 59.496 34 58.75c0-.746.5-1.35 1.118-1.35h17.564c.617 0 1.118.604 1.118 1.35 0 .746-.5 1.35-1.118 1.35z"/>
        </g>
    </g>
</svg>
