<svg xmlns="http://www.w3.org/2000/svg" width="510" height="322" viewBox="0 0 510 322">
    <g fill="none" fill-rule="evenodd">
        <g fill="#395D90" fill-rule="nonzero">
            <path d="M88.58 245.736l-.164 46.875.879.549 1.703.11.825-.604h1.428l.11 1.591 3.847 3.733.275 1.427 1.868-1.043.33-.11.164-1.701.825-.879.604-.11 1.044-.823 1.704 1.153.33 1.592 1.044.603.604 1.318 2.143.988 1.868 3.293 1.484 2.14 1.264 1.483.824 2.03 2.748.989 2.857 1.152.55 2.415.275 1.702-.55 1.866-.99 1.263-.878-.44-.825-1.701-1.483-.823-.99-.604-.439.439.824 1.482.11 2.03-.604.275-1.044-1.043-1.154-.713.274.878.715.988-.44.44s-.44-.166-.714-.55c-.275-.33-1.154-1.866-1.154-1.866l-.55-1.262s-.165.713-.55.548c-.329-.164-.714-.823-.714-.823l.99-1.043-.825-.823v-2.744h-.44l-.439 1.866-.604.274-.55-2.03-.33-2.032-.44-.274.166 3.129v.603l-.825-.713-1.978-3.293-1.154-.275-.33-2.03-.879-1.593-.879-.603v-1.263l1.154-.713-.275-.165-1.428.33-1.869-1.318-1.429-1.592-2.637-1.427-2.198-1.427.714-1.756v-.879l-.989.879-1.594.603-2.033-.603-3.132-1.318h-3.022l-.33.275-3.572-2.14-1.154-.166-1.483-3.183-1.979.165-1.978.823.275 2.47.604-1.592.55.165-.824 2.415 1.758-1.482.33.878-2.143 2.415-.715-.164-.275-1.043-.714-.44-.714.604-1.484-.988-1.703 1.153-.99 1.153-1.868 1.152-2.583-.11-.274-1.152 2.033-.33v-.713l-1.264-.33.55-1.317 1.263-2.14v-.988l.11-.44 2.418-1.262.55.714h1.483l-.714-1.427-2.033-.165-2.748 1.482-1.319 1.866-.989 1.427-.604 1.263-2.308.823-1.704 1.427-.164.878 1.263.55.44 1.152-1.484 1.756-3.571 2.306-4.287 2.305-1.154.604-2.912.603-2.912 1.263.989.713-.825.824-.274.604-1.484-.55-1.758.11-.44 1.263h-.55l.165-1.317-1.978.713-1.594.549-1.868-.714-1.593 1.043H27.31l-1.154.714-.88.439-1.153-.165-1.429-.603-1.264.329-.55.549-.878-.604v-1.043l1.703-.713 3.462.329 2.418-.878 1.154-1.153 1.593-.33.99-.438 1.483.11.88.713.549-.165 1.264-1.482 1.703-.549 1.869-.329.714-.165.33.275h.44l.714-2.031 2.198-.823 1.044-2.031 1.264-2.47.879-.824.165-1.427-.88.714-1.868.33-.33-1.318-.714-.165-.55.55-.11 1.59-.824-.109-.824-3.183-.714.713-.605-.274-.165-1.043-2.198.11-1.154.603-1.428-.164.824-.824.275-1.427-.33-1.043.824-.549.715-.11-.33-.987v-2.415l-.55-.55-.44.824h-3.351l-.824-.714-.33-2.14-1.154-1.976v-.55l1.154-.438.11-1.153.604-.604-.44-.274-.714.274-.604-1.482.55-2.744 2.472-1.756 1.429-.879 1.044-2.03 1.484-.714 1.428.604.165 1.317 1.319-.165 1.758-1.317.88.33.55.329h.878l1.264-.714.44-2.415s.165-1.592.55-1.866c.33-.275.549-.55.549-.55l-.605-1.042-1.428.44-1.759.438-1.044-.274-1.978-.988-2.748-.11-1.978-2.03.275-2.141.33-1.318-1.154-.988-1.044-2.03.274-.44 3.737-.274h1.154l.55.549h.33l-.11-.879 2.142-.329 1.43.165.823.604-.824 1.152-.275.824 1.484.878 2.748.988.989-.55-1.264-2.414-.55-1.757.55-.439-1.869-1.043-.274-.603.274-.879-.44-2.14-1.593-2.58-1.319-2.305 1.594-1.043h1.758l.99.33 2.308-.11 2.033-1.977.604-1.701 2.033-1.318.88.55 1.483-.33 2.033-1.153.605-.11.55.44 2.472-.11 1.484-1.702h.604l1.979 1.318 1.044 1.152-.275.604.33.604.879-.878 2.143.164.165 2.031 1.044.824 3.901.329 3.462 2.305.825-.549 2.857 1.427 1.154-.329 1.044-.439 2.638 1.043 2.473 1.482zm-63.248 15.863l1.154 2.909-.11.549-1.594-.165-.989-2.196-.989-.823h-1.319l-.11-1.427.99-1.317.604 1.317.824.823 1.539.33zm-1.429 18.387l2.033.44 2.034.548.44.55-.88 2.03-1.704-.11-1.868-1.976-.055-1.482zm-11.375-7.739l.605 1.427.604.878-.604.44-1.154-1.702v-1.043h.55zM5 312.37l1.868-1.262 1.869-.549 1.428.165.275.878 1.044.275 1.044-1.043-.165-.879 1.484-.329 1.594 1.427-.605.988-2.418.604-1.483-.275-2.033-.603-2.418.823-.88.165L5 312.37zm26.871-2.47l.88 1.043 1.153-.878-.824-.713-1.209.549zm1.594 1.647l.604-1.262 1.154.164-.44 1.043h-1.318v.055zm12.968-1.043l.824.988.55-.603-.44-1.043-.934.658zm4.836-6.86l.604 3.183 1.594.439 2.747-1.592 2.418-1.427-.879-1.317.275-1.318-1.154.714-1.594-.44.88-.603 1.043.44 2.144-.989.274-.823-1.318-.44.44-1.042-1.485 1.043-2.582 1.976-2.638 1.591-.77.604zm23.244-10.869l1.319-.823-.55-.988-.989.549.22 1.262zM128.145 281.743l1.044-1.976 1.264-.165.165.44-1.154 1.7h-1.319zm5.605-2.031l3.352 1.427 1.154-.165.88-2.14-.33-1.867-2.308-.274-2.198.988-.55 2.03zm16.87 5.489l2.033 3.019 1.32-.165.604-.275.824.714 2.033-.11.55-.823-1.594-.988-1.044-2.031-1.154-1.976-3.187 1.592-.385 1.043zm11.1 4.885l.715-1.043 2.582.549.33-.275 3.352.33-.165.713-1.428.824-2.418-.165-2.968-.933zm2.913 2.854l1.044 2.14 1.703-.603.165-.878-.88-1.153-2.032-.165v.659zm3.846-.659l1.264-1.591 2.583 1.317 2.418.604 2.418 1.482v1.043l-1.979.987-2.637.55-1.32-.824-2.747-3.568zm9.122 8.563l.88-.714 1.868.879 4.176 1.976 1.868 1.152.88 1.318 1.044 2.415 2.198 1.427-.165.713-2.143 1.757-2.308.823-.824-.33-1.704.989-1.319 1.756-1.264 1.592-.989-.11-1.978-1.427-.165-2.47.33-1.317-.88-3.129-1.153-.988-.11-1.427 1.264-.549 1.154-1.701.274-.55-.879-.987-.055-1.098zM345.422 252.707l.33.11.714-1.483.824-2.415 1.264.33 1.703 3.293v.549l-1.483 1.043 1.483.164 2.858-1.372-.165-4.171-1.374-.988-1.099-1.098.22-2.196 5.77-.823 14.122-1.592 3.682-.329 3.077.055-.275-1.208-.824-.439-.494-.604.55-1.427-.22-2.854-.88-2.47.44-2.8.934-2.634-.11-.933-.99-.384-.274-1.976-1.484-1.866-1.099-3.568-.769-3.678-.989-2.744-2.088-8.782-1.923-4.336-.44-3.074.055-1.208-4.946.44-12.858 1.207-6.704.44-.11 3.512.11 9.166-.385 17.016-.165 7.739 1.539 10.32.88 8.068zM322.782 186.676l-3.517-.384.495-1.702 1.703-1.427.33-1.262-.99-1.592-17.529.658-12.803.385-12.969.164.824 3.788.055 4.665.77 5.983.165 20.967 1.154.879 1.648-.66 1.594.66.22 5.543 13.847-.11 14.727-.439.495-1.042-.165-2.086-.934-1.702.824-.768-.77-1.208.385-1.317.605-3.238 1.483-1.263-.44-1.207 2.199-3.074 1.373-.604-.054-.933-.275-.933 1.593-3.184 1.374-.603.11-1.812 1.154-.768.495-2.25-.77-2.196 2.308-1.318.165-1.152.66-2.306.494-1.701zM74.293 210.607l-.165.824.275.548 10.386 5.873 6.649 4.172 8.078 4.72 9.232 5.49 6.759 1.317 13.957 1.482 3.297-21.736 3.847-29.146 2.418-17.015-13.518-1.976-33.356-6.038-.11.604-1.428 9.056-1.154 2.086-1.539-.11-.66-1.427-1.428-.22-.66-.603-.604.055-1.154.933-.165 3.732-.165.823-.274 6.862-.825 1.317-.22 1.811 1.54 2.745.604 3.018.384.604.605.494-.22 1.318-.934.658-1.869.878-.879.988-.879 1.976-.275 2.69-1.648 1.592-1.044.494-.055 3.183-.33.878.275.44 2.143.22-.495 1.646-.934 1.317-2.033.22z"/>
            <path d="M67.48 208.521l-10.826-1.482-5.495-.823-.275-.988v-5.16l-.165-1.756-1.428-2.305-.44-1.263-2.143-2.305-1.594-2.58-1.483-.11-1.759-.439-.165-.548.825-.33-.33-1.756-.824-1.153-2.638-.439-2.143-1.153-.605-1.262-1.428-2.635-1.594-1.701h-1.594l-2.143-1.153-2.472-.988-2.308-.274-1.32-1.482.276-1.043.989-3.897.44-1.043v-1.317l-.88-.55-.275-1.591-.824-1.427-1.868-3.184-.715-1.701-.824-2.58-.88-2.91-1.758-2.414-.274-1.592.44-2.14h.604l1.154-.879.604-1.976-.55-1.482-1.483-.274-1.044-1.427-1.154-2.031-.11-4.501.33-1.043.33-1.262.274-1.318-3.132-3.458v-1.152l.165-.275.165-1.756-.715-2.196-1.263-2.634-1.484-2.47-.99-2.141.55-2.031.33-3.184.99-1.701.164-3.568-.605-1.976-.879-2.305-1.483-2.305.44-1.757.823-2.305.99-.44.164-.603 1.704-1.427 2.857-6.477.11-4.062.929-2.69 21.26 6.478 14.068 3.622-4.396 17.18-4.764 18.168 6.94 10.539 23.167 34.195 9.397 14.326-.22 1.702 1.539 2.854.604 2.964.55.823.384.33-.11.768-.769.55-1.868.877-1.044 1.153-.934 2.14-.275 2.58-1.429 1.373-1.264.603-.055 3.403-.33 1.043.55.933 1.649.165-.22.878-.77 1.098-2.143.33-7.803-.495zm-40.61-26.84l.715.823-.11.714-1.758-.055-.33-.659-.33-.823h1.814zm1.045 0l.659-.33 1.978 1.153 1.704.659-.495.33-2.473-.11-.879-.879-.494-.823zm11.374 10.868l.99 1.262.44.55.823.329.33-.824-.55-.988-1.483-1.098-.605.11v.659h.055zm-.769 4.775l.99 1.757.659 1.042-.825.11-.714-.658s-.385-.824-.385-1.043v-1.208h.275zM208.978 125.97l-19.782-1.922-43.466-4.72-1.21 12.13-3.846 27.664-1.044 7.52 18.683 2.14 20.607 2.415 19.068 1.647 7.858.33zM468.237 101.489l1.978-1.757 1.045-1.152.44.33 1.483-.824 2.857-.604 3.847-1.921-.33-2.305-.44-2.416-.879-3.293-2.363.604-11.979 2.58.33 1.701.824 4.007v4.556l-.495 1.153.935 1.207zM458.566 132.391l-.55.275-1.978-1.318-.989-2.58-1.044-1.976-1.264-.548-1.154-1.976.275-1.098.275-1.263.055-.603-.33.054-.934.55-1.1.932-.11.165.77 2.25 1.264 3.074 2.033 8.837 2.748-.164 3.297-.604zM412.297 241.07l-2.857-.384-.385.44.824 2.414-.22 2.855-2.253-.55-.11-1.536h-2.252l-2.913.384-17.804 1.043-4.506-.165-.934-.933-1.374-2.305h-3.242l-3.627.274-19.452 2.306-.165 1.536.879.879 1.593 1.097.165 4.611 1.814-.33 3.297-1.152 3.297-.274 2.418-.33 4.176.988 4.451 2.14.88.824 1.593.604.879 1.043.165 1.482 1.758-.714h2.143l1.979-1.043 2.033-1.976 1.703.11.275-.604-.44-.548.11-1.043 2.198-.44h1.43l1.593.824 2.308.823 1.318 2.031 1.484.549.605 1.866 1.868.878.88 1.428 1.043.329 2.858.713.714 1.702 1.649 2.03v5.215l-.825 2.58.165 1.482.714 2.635.99 2.195.44-.274.823-2.47-1.428-.55-.165-.328.88-.33 2.472.55.11.877-1.759 3.02-1.154 1.316 1.979 2.031 1.428 1.702 1.594 2.909 1.594 2.14 1.154 2.745.989.165.879-1.153.989.604 1.429 2.195.33 1.976 1.703 2.415.44-.713 2.143.165 1.978 1.262 1.868 2.854.44 1.866.165 1.592.604.55.714.274 1.32-.55.824-.878 2.143-.11 1.703-.823 1.484-1.756-.275-1.043-.165-1.317.33-1.043-.165-1.043 1.319-.714.165-1.866-.33-.988-.275-6.586-.714-4.172-2.473-4.5-1.978-3.184-1.429-2.91-1.593-1.591-1.594-4.062.385-.768.604-.714-.88-1.592-2.197-2.03-2.638-3.02-2.033-3.457-2.912-5.16-2.034-5.324-1.263-4.007-2.858-.165zm9.726 72.837l1.32-.329.714-.11.824-1.262 1.264-.878.714.274.934.165.22.603-1.923.66-2.308.822-1.264.66-.495-.605zm7.419-2.744l.66.604 1.483-1.153 2.912-2.305 2.033-2.14 1.374-3.624.55-.933.11-1.866-.385.275-.55 1.536-.824 2.525-1.758 2.91-2.418 2.305-1.868 1.043-1.32.823z"/>
            <path d="M412.297 240.521l-3.077-.384-.77.878.88 2.58-.165 2.14-1.21-.328-.109-1.647h-2.857l-2.913.384-17.749 1.043-4.231-.165-.77-.658-1.373-2.36-.44-1.812-.88-.494-.274-.274.495-1.208-.22-3.019-.88-2.47.44-2.69.934-2.634-.11-1.372-1.044-.384-.22-1.757-1.538-1.92-1.044-3.404-.824-3.842-.935-2.635-2.088-8.782-1.923-4.391-.44-2.91.055-1.262 1.814-.164 7.473-.878 10.221-1.098 3.462-.604.275.768-1.21.494-.494 1.208.22 1.098.77.878 2.362 1.482 1.759-.055 1.758 2.58.33.878 1.264 1.537.274.933 2.583.988 1.649 1.208 1.264 1.646 1.263.714 1.1.988.769 1.482 1.154 1.043 2.253.988 1.483 3.293.935 2.8 1.538.383 1.154 1.043 1.1 3.129 1.593.878.934-.439.22.659-1.814 3.403.275 1.427-.824 2.305-1.264 5.49.44 3.457zM306.022 97.482l1.154 1.153.165.384-1.1 1.647.165 2.195 1.43 2.25 1.703.879 1.318.164.495.988.11 1.318 1.374.549.494.603.275.879 2.088 1.81.33 1.044-.385 1.646-.934 2.031-.33 1.318-1.154.878-.879.274-3.132.824-.88 2.634.44.988.934.824-.11 1.92-1.043.77-.385.987v1.317l-.77.22-.934.768-.274.934.22.933-.715.549-1.264-1.482-.77-1.537-4.56.439-5.495.33-27.036.658-.88-2.36-.22-3.678-.768-2.305-.385-2.855-1.209-2.03-.55-2.525-1.483-4.282-.605-3.073-.769-1.043-.714-1.592.934-2.086.66-3.348-1.484-1.207-.165-1.318.384-1.317.99-.165 33.575-.33 11.65-.383zM96.384 11.872l-2.638 9.556-2.473 11.45-1.868 8.903-.22 5.308.66 2.437 1.923 1.46-.11 2.146-2.143 2.415-2.473 3.623-.495 1.592-.66.603-.988.44-2.363 2.909-.22 1.701-.22.604.33.549 1.429-.055.604 1.262-1.319 3.184-.659 2.305-4.836 19.376 11.375 2.47 21.706 4.336 19.123 3.348 2.692-16.027 2.088-13.228-1.483-1.318-.22-1.427-.44-.604-1.154.55-.384 1.426-1.759.275-2.143-.878-2.088.054-1.374.385-1.868-.824-1.319.11-1.319 1.098-1.099-.604-.384-2.195.384-1.592-1.373-1.592-1.814-1.427-1.484-7.19-.054-2.58-.165-.055-.11.22-2.803 1.92-.934-.11-1.593-1.865-.11-1.702 3.846-9.402-.22-1.065-1.868-.631-.33-.648-1.428-1.9-2.528-5.614-1.759-.84-1.099-2.717.715-2.541-1.759-4.161 2.418-11.812z"/>
            <path d="M340.036 114.333l-.44-1.427-.714-2.031-.879-.988-.824-1.427-.22-3.02-8.737.989-9.561.549h-6.76l.11 1.152 1.21.494.604.769.22.768 2.143 1.866.384 1.318-.384 1.811-.934 2.031-.44 1.482-1.319 1.043-1.044.33-2.857.713-.715 2.25.33.604 1.044.988-.11 2.36-1.154.878-.275.714v1.537l-.989.33-.77.658-.219.658.22 1.098-.88.714-.494 1.537.165 2.14 1.264 3.842 3.846 4.172 3.133 2.03v2.416l.384.659 3.627.329 1.484.768-.385 1.921-1.209 3.404-.44 1.646 1.1 2.031 3.516 2.91 2.638.438 1.209 2.8 1.1 1.866-.496 1.537.825 2.085.934 1.153.88-.165.549-1.207 1.318-.933 1.54-.55 3.351 1.373.275-.11v-.603l-.66-1.482.22-1.537 1.32-.878 1.867-.66-.274-.713-.44-1.097.66-.714.549-1.482v-2.196l.22-2.69 1.374-1.646.989-2.086 1.373-2.195-.274-2.91-.99-1.756-.164-1.81.44-2.91-.385-3.952-.605-8.672-.77-8.398-.494-6.422z"/>
            <path d="M342.344 115.32l.825.55.604-.165 1.154-1.043 1.374-.988 7.858-.604 10.11-.988.88 8.508 2.693 23.383-.33 1.591.714.879.11.713-1.264.878-1.978.933-1.758.22-.275 2.635-2.583 1.976-1.593 2.195.11 1.317-.275.769h-1.923l-.77-.933-2.857 1.646.11 1.702-.495.11-.275-.494-1.318-.933-1.979.823-.769 1.592-.66-.33-.879-.988-2.418.275-3.132.549-1.373.713v-1.427l.22-2.58 1.263-1.591.99-2.141 1.483-2.305-.275-3.184-.989-1.701-.165-1.757.44-2.909-.385-3.897-.494-6.916-1.374-16.521zM267.061 139.142l-24.068-.329-22.31-.659-11.925-.494-2.362 35.568 13.353.549 24.563 1.153 25.442.329 6.924-.165.385-19.21-.66-6.093-1.374-1.098-1.318-1.647-1.264-1.976.33-1.646.934-.769v-1.152l-.44-.385-1.429-.11-1.923-1.866z"/>
            <path d="M333.717 178.827l6.924-.384.055-2.25h2.363l16.705-1.757 24.783-2.36 3.077-1.977 2.143-1.152.055-1.043 3.297-4.281 2.253-1.976 1.154-1.318-1.813-1.097-1.374-1.482-1.649-2.086-.274-1.208-1.43-.768-.494-1.043-.11-3.348-1.428-1.098-1.044-.604-.275-1.262-.714.11-1.1.658-1.373 1.482-1.044-.933-1.374-.274-1.319.768h-1.264l-.989-1.098-3.077-.055-.99-2.47-1.593-.823-1.154.44-2.308.109-.275 1.153.66.823.165 1.153-1.539 1.097-2.088.988-1.429.22-.275 2.47-2.692 1.976-1.429 2.03.11 1.208-.494 1.263-2.473-.055-.715-.714-2.143 1.208.11 1.811-1.319.33-.44-.769-.933-.659-1.484.604-.99 1.921-1.208-.549-.77-.878-2.033.22-3.077.549-1.539.713-.659 1.866-.55.55.825 2.03-2.308.769-1.044.768-.22 1.208.66 1.317v1.207l-.88.22-3.352-1.372-1.264.494-1.099.768-.44.988.935 1.318-.495.988-.055 1.81-1.319.714-1.153.934zM289.591 263.41l4.451-.165 5.66 1.976 3.572.604 2.033-.823 1.759.603 1.758.55.44-1.153-1.759-.604-1.428.274-1.484-.878.44-.823 1.703-.549.99.823.988-.549 1.759.33.824 1.317.165 1.262 2.473.165.989.988-.44.878-.714.44.88.878 4.615 1.976 1.978-.714.55-1.317 1.428-.33.99-.823.714.549.44 1.592-1.264.439.33.33 1.868-.714 1.264-1.867.44-.274-1.155-.165.44-.878-.11-.823 1.154-.275.604-.713.33.439.33 1.701 2.308.33 2.198 1.043.55.823h1.593l.604.549 1.264-1.702v-.823h-.714l-1.869-1.482-3.187-.44-1.758-1.262.604-1.481 1.264.164.11-.33-.989-.548v-.274h1.758l.99-1.702-.715-1.043-.165-1.482-.824.11-1.044 1.153-.33 1.427-1.703-.33-.55-.988.99-1.043 1.043-.933-1.208-3.567-1.869-1.867.55-4.006-.11-.275-.715.11-18.188.768-.44-1.317.44-4.666 4.725-8.123-.494-1.427.77-.22.219-1.097-1.209-1.098.055-1.043-1.099-2.47-.22-2.8.055-.384-14.507.44-13.848.054.22 5.325.385 5.214.275 2.03 1.428 2.47.495 2.416 2.363 3.293.165 1.702.33.439-.385 4.556-1.539 2.524.66 1.318-.275 1.427-.44 4.007-.714 1.646.11 2.031zM487.745 91.39l-.275-1.263.44-.823 1.593-.824.44 1.702-.275.988-1.319.823v.549l1.044-.823 2.143-2.47 2.144-1.043 2.307-.823-.164-1.318-.55-1.592-1.044-1.317-.99-.439-1.153.11-.275.274.55.714.824-.44 1.154.879.44 1.482-.99.988-1.263.549-1.979-.275-2.143-3.293-1.264-1.427h-.989l-.604.439-1.044-1.427.165-.823 1.318-2.855-1.593-2.415-2.033.988-.99 1.592-10.056 2.58-7.583 1.372-.33 5.818.385 2.69 12.09-2.635 6.154-1.537 1.099.878 1.868 2.36 1.594 2.58 1.154-.494zm6.869.768l1.209-.384.274-.934.55.055.55 1.263-.715.274-2.143.055.275-.33zm-5.166.439l1.264-1.427h.88l.989.823-1.32.549-1.208.549-.605-.494zM458.786 141.667l.934-2.086.275-2.634-3.462.604-3.188.164-2.088-9.221-1.264-3.019-.824-2.525-12.199 2.36-20.662 4.172 1.1 5.708 2.637-2.69 1.374-.383.77-.824.988-1.482.88.385 1.428-.11 1.429-1.153 1.1-.823 1.153-.33.824.604 1.484.769 1.044.988.714.768 2.638.878-.33 1.592 3.188 1.153 1.153-1.427 2.034 1.372-1.154 1.811-.385 1.811-.99 1.428v1.152l.166.44 1.099.713 1.868.604 2.363-.055 1.704.549 1.153.164.55-1.152-.824-1.153v-.988l-1.32-1.153-1.153-3.018.714-2.91-.11-1.152-.714-.714s.824-.878.824-1.262c0-.33.275-1.153.275-1.153l1.044-.713 1.044-.879.275.55-.824.877-.715 2.031.165.604.99.165.274 3.019-1.154.549.165 1.975.275-.11.604-1.042.88.988-.88.713-.165 1.867 1.429 1.866 2.143.274.88-.439 1.758 2.305.55.22 4.066-1.592zm-7.968.11l.604 1.372.11.988.605 1.043s.494-.494.494-.659c0-.164-.385-1.701-.385-1.701l-.384-1.263-1.044.22zM475.82 47.15l.825.219v-1.427l.44-3.02 1.428-2.579.824-2.195-1.044-1.318v-3.293l.44-.549.44-1.482-.11-.823-.11-2.635.989-2.635 1.593-4.885 1.154-2.305h.715l.714.11v.604l.714 1.262 1.484.33.44-.44v-.549l2.198-1.591.989-.988.824.11 3.297 1.317 1.044.549 5 16.411h3.298l.44 1.043.11 2.635 1.593 1.262h.44l.11-.274-.275-.604 1.538-.274 1.044 1.152 1.264 2.031v1.043l-1.154 2.58-1.044.329-1.868 1.702-2.638 3.018h-.714c-.33 0-.55-1.152-.55-1.152l-.989.11-.55.823-1.318.823-.55.824.88.823-.275.33-.275 1.481-1.044-.11v-.878l-.165-.713-.824.164-.99-1.756-1.153.713.714.824.165.604-.44.713.165 1.702.11.878-.879 1.427-1.594.274-.164 1.592-2.913 1.702-.714.274-.88-.823-1.703 1.976.55 1.756-.825.714-.11 2.415-.604 3.458-1.209-.494-.275-1.702-2.198-.603-.11-1.373-6.429-20.544.714-.094zm20.058 8.562l.824-.823.77.603.329 1.318-.934.494-.99-1.592zm3.681-3.239l.99 1.043s.714.055.714-.11c0-.164.11-1.097.11-1.097l.494-.44-.44-.987-1.098.384-.77 1.207zM354.214 112.521l10.495-1.042.11.603 5.44-.823 6.595-.933.055-.33.11-.823 1.153-2.03 1.1-.934-.11-2.8.879-.877.604-.165.11-1.976.824-1.647.605.33.11.33.44.109 1.043-.549-.22-4.995-1.758-4.5-1.264-4.996-1.318-1.756-1.43-.988-.878.604-2.143.988-1.045 2.744-1.483 2.031-.605.33-.824-.33s-1.429-.823-1.319-1.153c.11-.329.275-2.744.275-2.744l1.868-.714.44-1.866.33-1.427 1.318-.878-.164-5.489-.88-1.262-.714-.44-.44-1.152.44-.44.88.165.11-.878-1.43-1.207-.714-1.427h-1.429l-2.472-.824-3.023-1.866h-1.483l-.33.33-.55-.275-1.703-1.263-1.594.988-1.593 1.263.165 1.976.549.165 1.154.274.275.44-1.429.438-1.429.165-.824.988-.165 1.153.165.878.165 3.019-1.978 1.152-.33-.11V73.77l.714-1.317.33-1.317-.44-.44-1.044.44-.55 2.305-1.483.604-.989 1.042-.11.55.33.438-.33 1.428-1.264.274v.604l.44 1.317-.605 3.348-.879 2.196.33 2.58.275.603-.44 1.318-.165.439-.165 1.482 1.979 3.293 1.593 3.568.824 2.635-.44 2.58-.549 3.293-1.319 2.854-.164 1.482-1.759 1.701 7.144-.549zm-18.299-39.739l-.714-.604-.99-5.708-2.033-.714-.934-1.262-6.924-1.537-1.538-.604-4.451-1.207-4.286-.55-2.143-2.908.384-.275 1.484-.439 1.978-1.262v-.549l.33-.33 3.297-.548 1.319-1.043 2.418-1.153.11-.713 1.044-1.592.989-.44.714-.987 1.264-1.263 2.418-1.317 2.582-.274.605.603-.165.55-2.033.548-.824 1.702-1.264.439-.275 1.317-1.319 1.757-.165 1.427.44.274.55-.604 1.978-1.591.714.713h1.264l1.758.549.825.604.824 1.701 1.483 1.482 2.144-.11.824-.548.88.713.878.275.715-.44h.604l.88-.548 2.197-1.976 1.869-.604 3.626-.165 2.473-1.043 1.429-.713.824.11v3.128l.275.165 1.594.439 1.044-.274 3.352-.879.604-.603.824.274v3.842l1.759 1.702.714.329.715.549-.715.165-.44-.165-2.033-.275-1.154.33-1.263-.11-1.759.823h-.989l-3.187-.713-2.858.11-1.044 1.427-3.846.329-1.32.44-.604 1.7-.714.604-.275-.11-.824-.878-2.473 1.318h-.33l-.604-.878-.44.11-1.044 2.414-.55 2.196-1.758 3.787-.714-.439zM319.65 41.77l.989-1.153 1.209-.439 2.967-2.14 1.264-.33.275.275-2.803 2.8-1.813 1.042-1.154.494-.934-.549zm47.367 17.62l.33 1.372 1.759.11.714-.66s-.055-.823-.22-.878c-.165-.11-.88-1.042-.88-1.042l-1.208.11-.88.11-.164.603.55.274z"/>
            <path d="M255.357 33.367l-.33 2.146v5.637l.88 2.76 1.043 1.823.275 5.45.99 7.383.988 4.007.22 3.513v2.909l-.879.988-.989.713v.824l.495.933 2.253 1.92.384 1.757v19.705l33.136-.329 11.65-.384-.276-3.294-.989-1.152-3.956-2.525-1.978-2.91-1.869-.493-1.099-1.537h-1.758l-1.923-2.086-.275-3.842.055-2.14.824-1.647-.385-1.482-1.538-1.702 1.209-3.348 2.967-2.196.66-.768-.11-4.391.11-1.647 1.428-1.646 2.088-1.592.715-.11 2.472-2.744.99-.44 1.263-2.14 1.32-1.976 1.703-1.427 2.637-1.098 5.056-2.25 2.143-.988.33-1.263-2.418.22-.385.603h-.33l-.989-1.701-4.89.165-.55.439h-.55l-.274-.714-.44-.988-1.428.275-1.759 1.756-.879.44h-1.703l-1.43-.55v-1.152l-.714-.11-.274.274-1.43-.713-.274-1.592-.824.274-.275.55-1.319-.275-2.912-1.317-2.143-1.428h-1.594l-.714-.548-1.264.329-.604.604-.165.713h-2.638V34.69l-3.462-.165-.165-.823h-2.637l-.88-.879-.824-3.348-.44-3.019-1.044-.439-1.263-.274-.33.11-.165 4.5-16.54-.016zM325.969 182.614l.275-3.238 2.308-1.867 1.044-.548v-1.592l.384-.878-.604-.879-1.319.165-1.154-1.372-.934-2.47.495-1.427-1.1-1.757-.989-2.525-2.527-.384-3.737-3.074-1.209-2.305.44-1.811 1.209-3.294.33-1.646-1.045-.549-3.791-.33-.605-1.042v-2.25l-2.912-1.922-3.957-4.281-1.264-4.007-.274-2.305.384-1.318-1.428-1.701-.66-1.317-4.231.439-5.495.329-26.816.659.714 1.427-.055 1.207 1.264 1.976 1.649 2.14 1.703 1.648 1.429.11.77.603v1.592l-.99.878-.275 1.263 1.154 1.756 1.319 1.647 1.429 1.152.714 6.367-.44 21.956.275 3.128 13.024-.11 12.803-.384 17.86-.713 1.208 2.03-.44 1.702-1.703 1.372-.275.988 2.858.275 2.253-.604zM332.124 256.055l1.428-2.305.99.439 3.736-1.043 1.154.164.824.44h2.858l.22-.879-.935-8.123-1.538-10.429.55-24.755-.11-9.166.11-3.458-2.638.165-10.77.878-7.144.22-.11 1.756-1.539.713-1.429 2.8.275.878.055 1.317-1.594.604-1.923 2.8.44 1.262-1.649 1.372-.55 3.129-.329 1.043.88 1.372-.825.768.824 1.537.165 2.305-.66 1.373-.11.494.22 2.744 1.1 2.47-.055.933 1.263 1.098-.384 1.701-.495.165.33 1.043-4.726 8.233-.44 4.501.275.823 13.298-.384 4.506-.384 1.045-.165.33.769-.55 3.897 1.813 1.811 1.209 3.513zM198.483 35.551L195.57 66.91l-.714 8.343-32.476-3.622-26.926-3.898-.77 6.148-1.044-.933-.22-1.372-.714-1.043-1.813.823-.385 1.372-1.264.165-2.088-.878-2.253.055-1.319.384-1.758-.823-1.649.11-1.154 1.042-.494-.33-.385-1.865.385-1.757-1.484-1.756-1.813-1.372-1.374-6.916-.055-2.91-.88-.439-.329.55-2.473 1.756-.66-.055-1.263-1.537-.11-1.537 3.847-9.413-.33-1.466-1.923-.615-.22-.5-1.484-1.92-2.528-5.714-1.758-.867-.99-2.339.715-2.54-1.758-4.156 2.418-11.686 17.969 3.782 10.11 1.866 17.75 2.91 16.1 2.195 16.046 1.921 16.925 1.685zM432.354 193.043l-6.979-4.227-1.703-.439-9.122 1.153-.88-1.647-1.538-1.207-9.177.274-4.066.494-5.055 2.47-3.737 1.482-3.572.659-7.363.768.055-2.25.934-.714 1.483-.384.385-2.086 2.143-1.372 2.143-.823 2.473-2.031 2.418-1.262.385-1.757 2.253-2.086.384.55 1.374.109 1.319-1.976.934-.22 1.429.165.989-2.195 1.374-1.318.274-.988.055-1.92 2.418.054 21.156-3.074 31.597-6.751 1.1 2.635 1.977 3.567 1.32 1.318.329 1.262-1.319.11.44.33-.165 2.305-1.429.713-.33 1.153-.714 1.592-2.033.878-1.319-.165-.824-.11-.88-.713.165.713v.55h1.044l.44.713-1.044 3.458h2.308l.33.878 1.264-1.262.714-.275-1.044 1.976-1.704 2.635h-.714l-.604-.275-1.484.33-2.858 1.317-3.571 2.909-1.869 2.58-1.044 3.568-.275 1.317-2.582.274-2.803.824-5.605-4.556zm27.091-14.38l1.429-1.373 1.758-1.427.824-.33.11-1.097-.33-3.349-.824-1.262-.33-1.043.385-.11 1.484 3.02.22 2.414-.11 1.867-1.868.823-1.539 1.317-.604.659-.605-.11z"/>
            <path d="M258.874 66.086l-.22-3.403-.99-4.007-.988-7.47-.275-5.325-1.044-1.745-.88-2.92v-5.714l.33-2.113-.989-3.041-15.716-.324-10.22-.33-14.563-.713-13.847-1.185-.495 7.914-2.583 27.96 31.213 2.141 31.267.933zM258.49 108.844l-.55-1.263-.275-.878-1.594-.878-2.637-.823-1.21-.659-1.428.055-2.033.22-2.308.658-3.297-2.25-1.21-1.098-5.879.33-22.805-1.318-19.562-1.208-2.363 23.987 18.189 1.811-.77 11.581 11.925.55 22.31.658 24.068.33h2.473l-1.209-1.647-1.428-2.14.055-1.263-.77-1.482-1.044-2.855-.22-3.677-.769-2.25-.275-2.745-1.264-2.03-.55-2.58-1.538-4.337-.55-2.909zM484.558 74.264l.604-1.756-1.484-.659-.274-1.701-2.253-.604-.165-1.647-6.43-20.572-.384.044-.33.878-.33-.274-.549-.55-.824 1.044-.11 1.256.275 4.617 1.044 1.537v2.36l-2.143 2.634-1.32.494v.385l.605 1.042v4.72l-.44 5.05-.11 2.58.55.769-.11 2.58-.274.823.55.604 2.802-.659 7.583-1.921.934-1.592 2.198-1.043zM452.686 122.017l.055-.823 1.484-.714.934-1.537.934-1.317 1.813-1.756v-.659l-3.352-2.25-.55-1.482-1.483-.165-.055-.494-.384-1.208 1.209-.603.11-1.592-.715-.714.11-.658 1.044-1.702v-1.701l1.374-1.702 3.077 1.372 3.517 1.043 1.374.659.055.988-.275 1.482.22 2.47-1.154 1.043-.605.548.275.275 1.484-.165.604-.439.88 1.866.11 5.16.329.604-.604 3.018-1.704 3.568-1.484 2.196-.44 2.634-1.153 1.318h-.44l-.165-1.482.44-.55-.11-.822-2.198-.33-2.638-1.262-1.758-1.592-.55-1.098zM148.532 232.398l-9.177-1.427-.66 5.27-8.681-1.099 3.297-21.79 3.846-29.201 2.418-16.96 18.683 2.14 20.552 2.415 17.584 1.537-.164 5.928-.77-.055-4.066 53.626-15.606-.988-20.937-2.03.385 3.457zM67.7 91.993l21.265 4.666 14.287 2.854-5.824 29.146-2.968 16.356-1.813 8.508-1.154 6.093-1.429 9.001-.934 1.702-.88-.055-.659-1.427-1.538-.274-.715-.604-.989.055-.494.439-.99.713-.164 4.007-.165.824-.275 6.806-.604.988-9.177-13.997-23.135-34.086-6.83-10.428 4.698-17.894 4.402-17.18z"/>
            <path d="M463.511 106.484l.275-1.482-.11-1.318-1.648-.823-3.572-1.098-3.297-1.427-.33-.22-1.484-.164-1.099-.823-1.154-3.239-1.813-.274-1.319-1.318-21.1 4.446-17.365 3.294-.275-3.568.879-.659.714-.603.55-.879.989-.603 1.044-.988.275-.879 1.154-1.482.604-.549-.11-.548-.714-1.702-.99-.11-1.043-3.348 1.593-.988 2.418-.823 2.198-.714 1.759-.274 3.462-.11 1.044.714.879.11 1.154-.714 1.429-.604 2.857-.274 1.154-.988.99-1.757.878-1.043h1.154l1.044-.604.11-1.262-.824-1.153-.165-.823.605-1.153v-.823h-.99l-.989-.44-.44-.603-.11-1.427 3.188-3.019.33-.439.824-1.592 1.594-2.47 1.483-2.03 1.154-1.318 1.32-.988 1.703-.659 3.022-.713 1.758.11 2.473-.824 4.066-1.207.385 2.69 1.319 3.567.44 2.745-.55 2.305 1.429 2.47.44 1.098-.495 1.756 2.033.933 1.484 5.599v3.183l-.33 5.983.44 2.964.384 1.976.825 4.007v4.446l-.605 1.262 1.154 1.482.275.494-1.044.988.165.714.714-.165.824-.713 1.264-1.427.605-.33.879.33 1.264.11 4.34-2.141 1.594-1.482.715-.824 2.308.879-1.869 1.976-2.143 1.591-3.901 2.91-1.429.548-3.187 1.043-2.198.604-.55-.22zM364.82 112.631l.934 8.508 2.637 22.56 2.143-.11 1.264-.44 1.978.988.935 2.306 2.967.054.989 1.098h.934l1.319-.768 1.704.274.824.714.989-1.098 1.264-.768 1.319-.22.33 1.482.879.549 1.428 1.098.44.11 1.099-.055.66-.33v-1.152l.933-.824.055-2.634.605-2.306 1.044-.713.55.384.549.604.385.11.22-.22-.495-1.482v-1.208l.604-.768 1.374-1.976.714-.823 1.21.274 1.153-.823 1.649-1.812 1.209-2.03.11-2.964.274-2.745v-2.525l-.659-1.756.66-.988.714-.659-.33-1.537-2.363-14.051-3.407 2.03-2.143 1.263-1.868 2.031-2.198 2.14-1.759.44-1.593.274-3.023 1.427-1.154.11-1.868-1.701-2.857.329-1.429-.823-1.209-.714zM226.398 180.528l-.99 13.338-.494 9.88.11.878 2.198 1.976.934.494h.495l.494-1.152.825 1.043.879.054.165-.11.11-.603 1.538.768-.22 1.921 2.088.275 1.374.549 2.308.33 1.264.877 1.374-.933 1.923.384 1.209 1.702.66.055v1.262l1.153.385 1.374-1.153.99.33 1.483.054.385 1.263 2.418.988.934-.165 1.044-2.305h.714l.605 1.152 2.308.44 1.868.713 1.648.439.88-.384.384-1.482h2.473l1.044.494 1.484-1.043h.77l.329.768h1.978l1.1-.988 1.263.33.934 1.207 1.649.933 1.868.494 1.044.659-.165-20.638-.77-5.983-.054-4.72-.824-3.623-.33-3.732.055-2.36-6.924.164-25.442-.274-24.563-1.153-22.805-.988-.22 5.873zM37.113 83.925l15.519 3.952 15.122 3.567 9.342 2.031L81.93 74.21l.66-2.415 1.319-3.019-.385-.713-1.374.055-.714-.988.33-.824.22-1.811 2.582-3.129 1.044-.494.495-.439.384-1.482.44-.604 2.143-3.128 2.033-2.196.11-1.79-1.868-1.366-.66-2.497-7.198-2.102-8.408-1.905-8.132.203-.605-.719-2.802 1.01-2.473-.264-1.319-.867-.714.297-2.572-.16-1.077-.784-2.66-.972-.604-.038-2.446-.698-.967.835-3.44-.132-2.918-2.113.116-5.094-1.127-1.92-2.253-.33-.384-1.372-1.32-.275-3.186 1.153-1.264 3.568-1.759 5.488-1.758 3.568-2.748 7.74-3.571 7.464-4.451 6.916-1.044 1.592-.44 4.72-.714 3.294 1.489 1.92z"/>
            <path d="M404.824 102.202l.714-.274 3.132-3.019.385 3.787 18.409-3.567 20.276-4.282 1.264 1.263 1.704.22 1.099 3.073 1.319 1.043 1.538.22.055.054-1.428 1.757v1.701l-1.045 1.702-.11 1.043.715.713-.11 1.043-1.319.604.55 1.866.11.604 1.538.165.495 1.372 3.242 2.14v.22l-1.704 1.647-.824 1.207-.934 1.537-1.484.659-.769.164-1.154.714-.88.768-12.308 2.36-21.266 4.282-6.21.768-2.143.385-2.802-12.295-2.363-14.216zM480.107 93.146l-.44-2.415-.88-3.294 3.133-.823.824.714 1.869 2.36 1.538 2.415-1.538.768-.715-.11-.604.989-1.319 1.042-1.539.604zM417.133 223.726l-1.154-.55-1.044-3.073-1.374-1.263-1.374-.274-.824-2.525-1.649-3.568-2.308-.988-1.044-.988-.66-1.427-1.318-1.097-1.264-.714-1.209-1.592-1.758-1.317-2.418-.933-.22-.769-1.264-1.537-.274-.823-2.089-2.964-1.868.055-2.143-1.372-.66-.659-.11-.768.33-.878 1.484-.714-.44-1.098 3.517-1.482 5.056-2.47 3.901-.494 9.012-.274 1.264 1.043.99 1.92 2.527-.438 6.924-.824 1.484.44 6.868 4.061 5.55 4.556-2.912 2.964-1.429 3.348-.274 3.458-.88.44-.604 1.481-1.319.33-1.154 1.976-1.484 1.482-1.263 1.866-.88.439-1.978 1.866-1.593.11.55 1.756-2.748 2.91-1.264.878zM258.874 96.11l-.495 1.756.22 1.647 1.429 1.098-.66 2.964-.989 2.25.824 1.811.385.604-.714.055-.385-.878-.33-1.098-1.813-.988-2.638-.823-1.373-.714-1.594.055-2.143.22-2.088.658-2.913-2.085-1.483-1.318-5.99.44-22.805-1.318-19.562-1.208.824-13.612 1.539-18.662.22-2.744 31.267 2.14 31.267.933v1.482l-.715.824-1.099.823-.055 1.208.605 1.207 2.253 1.866.275 1.482V95.89zM368.666 194.086l-7.199.658-12.803 1.208-20.662 1.482-6.484.22.495-.33.494-2.47-.66-1.976 2.144-1.262.22-1.372.659-2.36 1.648-5.215.275-3.074.165-.11 6.76-.11 7.472-.438.055-2.141 1.924-.055 16.705-1.811 29.673-2.855 5.66-.823 4.177-.11 1.318-1.043.715.165-.055 1.811-.22.879-1.319 1.207-.879 1.976-1.1-.22-1.318.495-1.209 1.811-.77-.11-.439-.658-.604.22-2.363 2.195-.44 1.701-2.308 1.208-2.363 1.976-2.088.823-2.418 1.537-.33 1.976-1.373.274-1.099.933-.11 2.635zM155.456 230.312l20.332 1.976 16.1 1.043 4.067-53.626 29.893 1.317-.934 12.79-.55 9.88.11 1.097 2.418 2.25 1.1.604h.988l.275-.658.385.494 1.319.11.604-.33v-.11l.55.275-.22 2.03 2.473.385 1.318.494 2.308.384 1.43.988 1.538-1.043 1.483.33 1.21 1.701.439.055v1.153l1.813.603 1.374-1.152.824.274 1.154.055.33 1.153 2.858 1.097 1.263-.274 1.044-2.196h.055l.605 1.043 2.528.494 1.868.714 1.758.549 1.32-.659.384-1.262h1.978l1.154.549 1.649-1.098h.22l.274.768h2.583l1.044-.988.714.22.934 1.152 1.814 1.043 1.868.55 1.374.768 1.484 1.097 1.703-.658 1.154.439.385 10.978.384 5.214.33 2.25 1.429 2.415.494 2.47 2.308 3.239.165 1.701.33.44-.385 4.226-1.593 2.635.714 1.427-.275 1.317-.44 3.952-.714 1.647.165 2.305-3.077.878-5.44 2.47-.55 1.043-1.429 1.043-1.153.823-.715.44-3.132 2.908-1.484 1.153-2.912 1.757-3.132 1.317-3.462 1.866-.99.823-3.187 1.976-1.868.33-2.143 3.019-2.198.164-.55 1.043 1.264 1.043-.824 3.019-.714 2.47-.605 2.14-.44 2.47.44 1.318.99 3.842.549 3.348.989 1.482-.55.824-1.703 1.042-3.132-2.14-3.022-.604-.715.274-1.758-.329-2.308-1.701-2.858-.604-4.176-1.866-1.154-2.141-.714-3.568-1.759-1.043-.33-1.262.33-.33.165-1.866-.714-.329-.33-.549.714-2.415-.879-1.262-1.758-.714-1.869-2.415-1.978-3.623-2.308-1.427.11-1.043-2.912-6.751-.44-2.305-.989-1.043-.11-.824-3.297-2.909-1.429-1.701v-.604l-1.428-1.153-3.737-.603-4.066-.33-1.704-1.262-2.473.988-1.978.823-1.264 1.757-.55 2.03-2.417 3.349-1.319 1.317-1.429-.549-.989-.604-1.044-.329-2.143-1.262v-.33l-.99-1.043-2.857-1.152-4.066-4.282-1.264-2.58v-4.445l-1.758-3.568-.275-1.482-.88-.549-.604-1.153-2.747-1.152-.715-.878-3.901-4.337-.715-1.756-2.582-1.263-.824-2.415-1.43-1.591-.933-.275-.33-2.964zm95.835 77.777l-.33-3.897-1.484-3.952-.33-3.842.825-4.5 1.813-3.788 1.923-2.964 1.759-1.976.33.11-2.638 3.622-2.418 3.568-1.099 3.623-.165 2.854.495 3.348 1.428 3.952.275 2.854.11.824-.494.164zM125.563 164.61l13.518 1.977 1.044-7.52 3.846-27.719 1.264-12.075-17.694-1.921 1.209-7.19.989-5.819-19.068-3.348-6.869-1.372-5.825 29.036-2.967 16.466-1.814 8.453-.934 5.05z"/>
            <path d="M458.73 142.271l-.11 1.537-1.593 2.086-.22 2.525.275 1.866-.989 2.744-1.209 1.043-.824-2.525.22-2.964.879-2.305.385-1.811-.055-.934 3.242-1.262zm-33.135 24.48l-21.21 3.074-2.639-.055-1.208-.165-1.374 1.043-4.012.055-5.66.878-3.681.33 2.253-1.427 2.253-1.263v-1.152l3.132-4.007 2.253-2.031 1.209-1.372 1.978 2.36 2.088.494 1.484-.549 1.099-.823 1.319.658 2.527-.713.935-2.415 1.318.384 1.759-1.263.88.22 1.538-1.756.11-1.482-.44-.66 2.638-5.762.989-2.855.275-2.58.384-.11.605.934.824.659 2.143-.11.934-4.446 1.649-.33.44-1.427 1.538-1.207.604-1.153.99-2.36.054-2.525 1.979.769 3.626 1.701.165-2.854 1.869.659-.33 1.591 4.726 1.702.769.988-.44 1.811-.714.714-.275.933.275 1.317 1.1.714 2.142.768 1.594.55 2.692.493 1.21 1.153 1.758.22.494.658-.22 2.58.77.604-.275 1.042.66.44-.11.768-1.484-.055.055.878 1.264.824.055.768.989.988.275 1.372-1.43.769.88.823 3.187-.933 2.033 3.403-31.267 6.751zM457.632 57.798l1.318 3.567.44 2.91-.55 2.14 1.374 2.415.495 1.263-.385 1.427 1.814.823 1.593 5.928v2.91l6.32-1.154-.55-.603.33-1.043.11-2.36-.55-.769.11-2.58.44-5.104v-4.666l-.605-.988v-.878l1.539-.604 1.923-2.415v-1.976l-1.044-1.482-.165-3.178-14.342 3.727zM40.993 33.866l-1.264-2.36-2.253-.384-.22-1.318-1.374-.329-1.593-.274-.99.549-1.263-1.592.165-1.592 1.483-.165.88-2.195-1.43-.604.11-2.03 2.419-.33-1.484-1.482-.824-3.897.33-1.592V9.935l-.99-1.757 1.264-5.16 1.154.275 1.319 1.592 1.484 1.427 1.758 1.043 2.473 1.153 1.703.329 1.594.823 1.868.55 1.264-.11V8.781l.715-.604 1.154-.713.164.604.165.988-1.264.274-.165 1.153.99.823.604 1.317.33 1.043.824-.11.11-.713-.55-.714-.274-1.756.44-.988-.33-.823V7.136l.989-1.976-.605-1.428-1.319-2.634.165-.44.77-.438 2.417.823 5.33 1.482 4.726 1.043 10.99 3.128 12.64 3.129 8.242 1.916-2.638 9.638-2.472 11.433-1.869 8.92-.22 5.038-7.088-2.041-8.408-1.905-7.968.176-.604-.84-3.132 1.147-2.143-.23-1.43-.983-.933.357-2.28-.137-.946-.725-2.835-.999-.649-.088-2.637-.763-1.056.906-3.104-.137-2.533-1.839.104-4.803zm5.275-30.408l1.1-.11.274.769.824-.879h1.264l.44.824-.825.933.33.439-.384 1.098-.77.22s-.494.054-.494-.11c0-.165.824-1.428.824-1.428l-.934-.329-.165.823-.385.33-.824-1.263-.275-1.317zM297.56 57.03l1.593.274 1.593-.33 4.067-1.756 1.593-1.043 1.154-.44 1.044.824-.604.604-1.044 1.701-.33 1.043.55.33.989-.55.604-.109 1.484.44.33.603.604.11.33-.604 2.198 2.909 4.506.659 4.506 1.207 1.429.604 6.759 1.427.879 1.263 1.978.658.934 5.599.88.768.824.494-.605 1.263-.989.878-1.154 2.58-.714 1.317.11.988.824.165.604-1.043.825-.44.44-1.262 1.043-.988 1.484-2.195 2.308-3.458.44-.275.164.55-.11 1.262-1.593 3.732-1.484 3.129-.274 1.756-.33 1.427.44.714-.11 1.482-1.045 1.317-.274.988.33 1.976.33 1.866-.825 1.427-.44 1.592-.55 1.702.605 1.317.33 3.348.88 2.47-.11 1.647-8.738.988-9.616.549h-6.98l-.384-.824-1.593-.22-1.43-.713-1.263-2.03-.165-1.977 1.1-1.591-.276-.769-1.154-1.207-.44-1.812-.329-3.732-1.154-1.372-3.846-2.47-2.089-2.964-1.868-.55-1.209-1.536h-1.758l-1.594-1.811-.275-3.568.055-2.086.825-1.701-.44-1.757-1.374-1.537.99-2.964 2.857-2.085.879-1.043-.11-4.446.11-1.537 1.319-1.537z"/>
            <path d="M417.078 136.288l3.187-3.293 1.429-.44.879-.823.824-1.207.605.165 1.703-.11 2.528-1.976.824-.275.714.55 1.43.658 1.648 1.647-.22 2.36-2.967-1.427-2.638-.988-.055 3.238-1.429 3.129-1.593 1.317-.44 1.262-1.648.275-.935 4.446-1.538.11-.605-.55-.66-1.097-1.208.274-.275 2.8-.989 2.8-2.747 6.037.494.768-.055 1.098-1.209 1.372-.879-.22-1.703 1.263-1.54-.439-.988 2.69-2.088.548-1.374-.713-1.374 1.043-1.264.384-1.758-.44-2.088-2.47-1.924-1.207-1.373-1.372-1.594-2.03-.275-1.263-1.538-.933-.33-.714-.11-3.074.165.055 1.319-.11.989-.548v-1.208l.934-.823.055-2.854.494-1.976.605-.385.22.165.55.604.933.274.605-.713-.55-1.702v-.878l1.704-2.525.66-.714 1.098.275 1.429-.988 1.703-1.866 1.32-2.25.11-3.074.274-2.635v-2.69l-.604-1.646.494-.714.44-.384 2.363 10.593 2.362-.439 6.155-.713zM194.032 85.571l-.825 13.942-2.418 24.15-1.483-.164-45.774-4.995-15.332-1.646 1.1-6.587 3.79-22.504 2.089-13.283.714-6.148 26.487 3.842 32.476 3.568zM440.652 136.014l-.605-.878-.55-.44.605-.878 1.21.824z"/>
        </g>
        <path stroke="#395D90" d="M118.432 266.643v30.446L138.262 322M0 229h80.975l37.457 37.643h46.822L195 296.536V322"/>
    </g>
</svg>
